<svg xmlns="http://www.w3.org/2000/svg" viewBox="0 0 760 340" width="760" height="340" font-family="Helvetica, Arial, sans-serif">
<rect width="760" height="340" fill="#FFFFFF"/>
<text x="380.0" y="26" text-anchor="middle" font-size="16" font-weight="bold" fill="#0F172A">Memory-bank files on SpaceMaker (bytes, log scale)</text>
<line x1="80" x2="720" y1="225.0" y2="225.0" stroke="#E2E8F0"/>
<text x="72" y="229.0" text-anchor="end" font-size="11" fill="#475569">1 KB</text>
<line x1="80" x2="720" y1="155.0" y2="155.0" stroke="#E2E8F0"/>
<text x="72" y="159.0" text-anchor="end" font-size="11" fill="#475569">10 KB</text>
<line x1="80" x2="720" y1="85.0" y2="85.0" stroke="#E2E8F0"/>
<text x="72" y="89.0" text-anchor="end" font-size="11" fill="#475569">100 KB</text>
<text x="120.0" y="280" text-anchor="middle" font-size="12" fill="#334155">09-22</text>
<text x="260.0" y="280" text-anchor="middle" font-size="12" fill="#334155">09-24</text>
<text x="400.0" y="280" text-anchor="middle" font-size="12" fill="#334155">09-27</text>
<text x="540.0" y="280" text-anchor="middle" font-size="12" fill="#334155">09-29</text>
<text x="680.0" y="280" text-anchor="middle" font-size="12" fill="#334155">10-03</text>
<polyline points="120.0,157.6 260.0,105.3 400.0,92.1 540.0,71.5 680.0,67.8" fill="none" stroke="#0EA5E9" stroke-width="2.5"/>
<circle cx="120.0" cy="157.6" r="4" fill="#0EA5E9"/>
<circle cx="260.0" cy="105.3" r="4" fill="#0EA5E9"/>
<circle cx="400.0" cy="92.1" r="4" fill="#0EA5E9"/>
<circle cx="540.0" cy="71.5" r="4" fill="#0EA5E9"/>
<circle cx="680.0" cy="67.8" r="4" fill="#0EA5E9"/>
<text x="688.0" y="71.8" font-size="11" fill="#0EA5E9">176.0 KB</text>
<rect x="80" y="316" width="12" height="12" rx="2" fill="#0EA5E9"/>
<text x="98" y="326" font-size="12" fill="#334155">decisions.md</text>
<polyline points="120.0,200.1 260.0,236.6 400.0,214.6 540.0,120.4 680.0,112.6" fill="none" stroke="#16A34A" stroke-width="2.5"/>
<circle cx="120.0" cy="200.1" r="4" fill="#16A34A"/>
<circle cx="260.0" cy="236.6" r="4" fill="#16A34A"/>
<circle cx="400.0" cy="214.6" r="4" fill="#16A34A"/>
<circle cx="540.0" cy="120.4" r="4" fill="#16A34A"/>
<circle cx="680.0" cy="112.6" r="4" fill="#16A34A"/>
<text x="688.0" y="116.6" font-size="11" fill="#16A34A">40.4 KB</text>
<rect x="270" y="316" width="12" height="12" rx="2" fill="#16A34A"/>
<text x="288" y="326" font-size="12" fill="#334155">progress.md</text>
<polyline points="120.0,232.9 260.0,190.6 400.0,229.5 540.0,193.1 680.0,228.6" fill="none" stroke="#EA580C" stroke-width="2.5"/>
<circle cx="120.0" cy="232.9" r="4" fill="#EA580C"/>
<circle cx="260.0" cy="190.6" r="4" fill="#EA580C"/>
<circle cx="400.0" cy="229.5" r="4" fill="#EA580C"/>
<circle cx="540.0" cy="193.1" r="4" fill="#EA580C"/>
<circle cx="680.0" cy="228.6" r="4" fill="#EA580C"/>
<text x="688.0" y="232.6" font-size="11" fill="#EA580C">0.9 KB</text>
<rect x="460" y="316" width="12" height="12" rx="2" fill="#EA580C"/>
<text x="478" y="326" font-size="12" fill="#334155">activeContext.md</text>
</svg>